# xmcd
# Track frame offsets:
# 150
# 15114
# 31563
# 48773
# 59890
# 74471
# 89549
# 103167
# 109030
# 123766
# 138714
#
# Disc length: 2011 seconds
# Revision: 0
# Processed by: cddbd v1.5PL3 Copyright (c) Steve Scherf et al.
# Submitted via: VisiTrax 2.9.5.180 - For more info visit www.synapsa.com
#
DISCID=8f07d90b
DTITLE=Various Artist - New Country Volume 22 nov-dec 2003
DYEAR=2003
DGENRE=Christmas
TTITLE0=Jennifer Scott - How do I get out of this dream
TTITLE1=Billy Don Burns - I was there
TTITLE2=Lee Browning - Let's pretend
TTITLE3=Eddie Collins - Mr. Lonely me
TTITLE4=Floyd Fæowers - Pitt county line
TTITLE5=Dale Raines - You only live one life
TTITLE6=Yancy Dirtgoat - Redneck christmas carol
TTITLE7=T G Sheppard - Redneck night before christmas
TTITLE8=T G Sheppard - A december to rembember
TTITLE9=T G Sheppard - A whole lot more like christmas
TTITLE10=Barry Kaye - Randolph the redneck reindeer
EXTD=
EXTT0=
EXTT1=
EXTT2=
EXTT3=
EXTT4=
EXTT5=
EXTT6=
EXTT7=
EXTT8=
EXTT9=
EXTT10=
PLAYORDER=
